<svg width="40" height="45" viewBox="0 0 40 45" fill="none" xmlns="http://www.w3.org/2000/svg">
<path d="M32.2226 0.138123H7.77736C7.49957 0.138123 7.23567 0.313015 7.08289 0.610331L0.138207 13.4824C-0.0631891 13.8671 -0.0423551 14.3743 0.186819 14.7241L19.3541 44.5257C19.6875 45.0416 20.3125 45.0416 20.6459 44.5257L39.8132 14.7241C40.0424 14.3656 40.0632 13.8671 39.8618 13.4824L32.9241 0.610331C32.7643 0.313015 32.5074 0.138123 32.2226 0.138123ZM30.8823 4.33553L35.2783 12.7303H30.5281L26.9377 4.33553H30.8823ZM16.8471 4.33553H23.1459L26.7363 12.7303H13.2637L16.8471 4.33553ZM9.11768 4.33553H13.0623L9.47186 12.7303H4.7217L9.11768 4.33553ZM6.13147 16.9278H9.70104L14.4443 30.9191L6.13147 16.9278ZM13.2775 16.9278H26.7225L20 38.2034L13.2775 16.9278ZM25.5557 30.9191L30.292 16.9278H33.8616L25.5557 30.9191Z" fill="#282828"/>
</svg>
