<?xml version="1.0" encoding="utf-8"?>
<!-- Generator: Adobe Illustrator 19.0.1, SVG Export Plug-In . SVG Version: 6.00 Build 0)  -->
<svg version="1.1" xmlns="http://www.w3.org/2000/svg" xmlns:xlink="http://www.w3.org/1999/xlink" x="0px" y="0px"
	 viewBox="0 0 1302 133.3" style="enable-background:new 0 0 1302 133.3;" xml:space="preserve">
<style type="text/css">
	.st0{enable-background:new    ;}
	.st1{fill-rule:evenodd;clip-rule:evenodd;fill:#FFFFFF;}
	.st2{fill:#FFFFFF;}
</style>
<g id="Nova_1_" class="st0">
	<g id="Nova">
		<g>
			<path class="st1" d="M77.5,126.2h24v0L77.5,126.2L77.5,126.2z M139.1,118.3c-5.1-6-7.7-14.5-7.7-25.4V34.8
				c0-10.5,2.6-18.5,7.7-23.8c1.8-1.9,3.8-2.8,6-3.2H0v118.5h41.2L41.7,7.7h23.8l12.2,54.8L77.4,7.7h23.8l0.2,118.5h50.6
				C146.8,124.8,142.4,122.2,139.1,118.3z M41.2,126.2h24v0L41.2,126.2L41.2,126.2z M65.2,126.2h12.3L65.2,65.1V126.2z M161.8,25.4
				c-4.1,0-6.1,3.1-6.1,9.2v59.6c0,3.5,0.4,6.2,1.3,8c0.9,1.8,2.4,2.7,4.7,2.7c2.2,0,3.7-0.9,4.4-2.8c0.8-1.9,1.1-4.6,1.1-8V34.3
				c0-2.7-0.4-4.8-1.1-6.5C165.5,26.2,164,25.4,161.8,25.4z M334.4,24.8L329.8,87H341l-5.4-62.2H334.4z M328,106.5l-1.4,19.8h18
				l-1.7-19.8H328z M344.6,126.2h23.3l0,0L344.6,126.2L344.6,126.2z M417,7.7H177.8c2.5,0.5,4.7,1.4,6.5,3.2
				c5.1,5.4,7.7,13.3,7.7,23.8v58.2c0,11-2.6,19.5-7.7,25.5c-3.3,3.9-7.7,6.5-13,7.8h61.9L220.4,7.7h17.9l12.2,79.4l11.6-79.4H280
				l-13.2,118.5h35.9L315.7,7.7h35.7l16.4,118.5H417V7.7z M233.2,126.2h33.6l0,0L233.2,126.2L233.2,126.2z M302.7,126.2h23.9l0,0
				L302.7,126.2L302.7,126.2z"/>
		</g>
	</g>
</g>
<g id="Designs_London">
	<g>
		<path class="st2" d="M461.2,7.8H494c8.5,0,14.8,2.3,19,7c4.2,4.7,6.4,11.6,6.5,20.8l0.3,55.5c0.1,11.7-1.9,20.5-6.1,26.4
			c-4.1,5.9-11,8.8-20.6,8.8h-31.9V7.8z M489.3,105.4c4.3,0,6.5-2.1,6.5-6.3V37.9c0-2.7-0.2-4.7-0.6-6c-0.4-1.3-1.2-2.2-2.3-2.7
			c-1.1-0.5-2.8-0.7-5.1-0.7h-2.6v76.9H489.3z"/>
		<path class="st2" d="M529.3,126.3V7.8h47.5v22.9h-23.3v23h22.4v22.4h-22.4v27.2h24.8v23H529.3z"/>
		<path class="st2" d="M591,119.4c-4.8-5.3-7.2-13.9-7.2-25.8V82h23.3v14.8c0,5.9,1.9,8.8,5.7,8.8c2.1,0,3.6-0.6,4.4-1.9
			c0.8-1.2,1.2-3.3,1.2-6.3c0-3.9-0.5-7.1-1.4-9.6c-0.9-2.5-2.1-4.6-3.5-6.3c-1.4-1.7-4-4.3-7.7-7.9l-10.2-10.2
			c-7.9-7.7-11.9-16.3-11.9-25.7c0-10.1,2.3-17.8,7-23.1c4.6-5.3,11.4-7.9,20.4-7.9c10.7,0,18.4,2.8,23,8.5c4.7,5.7,7,14.5,7,26.6
			H617l-0.1-8.1c0-1.6-0.4-2.8-1.3-3.7c-0.9-0.9-2.1-1.4-3.7-1.4c-1.8,0-3.2,0.5-4.1,1.5c-0.9,1-1.4,2.4-1.4,4.1
			c0,3.9,2.2,7.9,6.6,12l13.8,13.2c3.2,3.1,5.9,6.1,8,8.9c2.1,2.8,3.8,6.1,5.1,9.9c1.3,3.8,1.9,8.3,1.9,13.6
			c0,11.7-2.1,20.5-6.4,26.6c-4.3,6-11.3,9-21.2,9C603.5,127.4,595.7,124.8,591,119.4z"/>
		<path class="st2" d="M648.6,126.3V7.8h22.9v118.5H648.6z"/>
		<path class="st2" d="M686.4,118.4c-4.2-6-6.3-15.2-6.3-27.4V39.9c0-10.9,2.4-19.2,7.3-24.8c4.9-5.6,12.1-8.4,21.8-8.4
			c7.8,0,13.9,1.6,18.2,4.7c4.3,3.1,7.3,7.7,9,13.7c1.7,6,2.5,13.7,2.5,23h-23.2V37.5c0-2.9-0.4-5.1-1.2-6.6
			c-0.8-1.6-2.2-2.3-4.2-2.3c-4.5,0-6.8,2.9-6.8,8.8v57.4c0,3.6,0.5,6.3,1.4,8.1c0.9,1.8,2.5,2.8,4.8,2.8c2.3,0,3.9-0.9,4.8-2.8
			c0.9-1.8,1.4-4.6,1.4-8.1v-17h-6.3V57.3h29v69h-9.5l-4-9.9c-4.2,7.4-10.8,11-19.6,11C696.9,127.4,690.6,124.4,686.4,118.4z"/>
		<path class="st2" d="M748,126.3V7.8h24.4l10.9,56.7V7.8h22.9v118.5h-23.2L771.2,67v59.3H748z"/>
		<path class="st2" d="M821.6,119.4c-4.8-5.3-7.2-13.9-7.2-25.8V82h23.3v14.8c0,5.9,1.9,8.8,5.7,8.8c2.1,0,3.6-0.6,4.4-1.9
			c0.8-1.2,1.2-3.3,1.2-6.3c0-3.9-0.5-7.1-1.4-9.6c-0.9-2.5-2.1-4.6-3.5-6.3c-1.4-1.7-4-4.3-7.7-7.9l-10.2-10.2
			c-7.9-7.7-11.9-16.3-11.9-25.7c0-10.1,2.3-17.8,7-23.1c4.6-5.3,11.4-7.9,20.4-7.9c10.7,0,18.4,2.8,23,8.5c4.7,5.7,7,14.5,7,26.6
			h-24.2l-0.1-8.1c0-1.6-0.4-2.8-1.3-3.7c-0.9-0.9-2.1-1.4-3.7-1.4c-1.8,0-3.2,0.5-4.1,1.5c-0.9,1-1.4,2.4-1.4,4.1
			c0,3.9,2.2,7.9,6.6,12l13.8,13.2c3.2,3.1,5.9,6.1,8,8.9c2.1,2.8,3.8,6.1,5.1,9.9c1.3,3.8,1.9,8.3,1.9,13.6
			c0,11.7-2.1,20.5-6.4,26.6c-4.3,6-11.3,9-21.2,9C834.1,127.4,826.3,124.8,821.6,119.4z"/>
		<path class="st2" d="M912.6,126.3V7.8h23.7v98.4h24.4v20.1H912.6z"/>
		<path class="st2" d="M973.9,118.7c-5-5.8-7.5-14.1-7.5-24.6V37.6c0-10.2,2.5-17.9,7.5-23.1c5-5.2,12.2-7.8,21.8-7.8
			c9.6,0,16.8,2.6,21.8,7.8c5,5.2,7.5,12.9,7.5,23.1V94c0,10.7-2.5,18.9-7.5,24.7c-5,5.8-12.2,8.7-21.8,8.7
			C986.1,127.4,978.9,124.5,973.9,118.7z M1000,102.9c0.7-1.8,1.1-4.4,1.1-7.7v-58c0-2.6-0.3-4.7-1-6.3c-0.7-1.6-2.1-2.4-4.2-2.4
			c-4,0-5.9,3-5.9,9v57.8c0,3.4,0.4,6,1.2,7.7c0.8,1.7,2.3,2.6,4.6,2.6C997.8,105.6,999.2,104.7,1000,102.9z"/>
		<path class="st2" d="M1034.5,126.3V7.8h24.4l10.9,56.7V7.8h22.9v118.5h-23.2L1057.7,67v59.3H1034.5z"/>
		<path class="st2" d="M1103.2,7.8h32.7c8.5,0,14.8,2.3,19,7c4.2,4.7,6.4,11.6,6.5,20.8l0.3,55.5c0.1,11.7-1.9,20.5-6.1,26.4
			c-4.1,5.9-11,8.8-20.6,8.8h-31.9V7.8z M1131.2,105.4c4.3,0,6.5-2.1,6.5-6.3V37.9c0-2.7-0.2-4.7-0.6-6c-0.4-1.3-1.2-2.2-2.3-2.7
			c-1.1-0.5-2.8-0.7-5.1-0.7h-2.6v76.9H1131.2z"/>
		<path class="st2" d="M1177.7,118.7c-5-5.8-7.5-14.1-7.5-24.6V37.6c0-10.2,2.5-17.9,7.5-23.1c5-5.2,12.2-7.8,21.8-7.8
			c9.6,0,16.8,2.6,21.8,7.8c5,5.2,7.5,12.9,7.5,23.1V94c0,10.7-2.5,18.9-7.5,24.7s-12.2,8.7-21.8,8.7
			C1190,127.4,1182.7,124.5,1177.7,118.7z M1203.8,102.9c0.7-1.8,1.1-4.4,1.1-7.7v-58c0-2.6-0.3-4.7-1-6.3c-0.7-1.6-2.1-2.4-4.2-2.4
			c-4,0-5.9,3-5.9,9v57.8c0,3.4,0.4,6,1.2,7.7c0.8,1.7,2.3,2.6,4.6,2.6C1201.6,105.6,1203.1,104.7,1203.8,102.9z"/>
		<path class="st2" d="M1238.3,126.3V7.8h24.4l10.9,56.7V7.8h22.9v118.5h-23.2L1261.5,67v59.3H1238.3z"/>
	</g>
</g>
</svg>
