<svg width="28" height="28" viewBox="0 0 28 28" fill="none" xmlns="http://www.w3.org/2000/svg">
<g clip-path="url(#clip0_13_31)">
<path d="M14.0062 7.71098C10.0312 7.71098 6.82499 10.5165 6.82499 13.9946C6.82499 17.4727 10.0312 20.2782 14.0062 20.2782C17.9812 20.2782 21.1875 17.4727 21.1875 13.9946C21.1875 10.5165 17.9812 7.71098 14.0062 7.71098ZM14.0062 18.0797C11.4375 18.0797 9.33749 16.2477 9.33749 13.9946C9.33749 11.7415 11.4312 9.90942 14.0062 9.90942C16.5812 9.90942 18.675 11.7415 18.675 13.9946C18.675 16.2477 16.575 18.0797 14.0062 18.0797V18.0797ZM23.1562 7.45395C23.1562 8.2688 22.4062 8.91958 21.4812 8.91958C20.55 8.91958 19.8062 8.26333 19.8062 7.45395C19.8062 6.64458 20.5562 5.98833 21.4812 5.98833C22.4062 5.98833 23.1562 6.64458 23.1562 7.45395ZM27.9125 8.94145C27.8062 6.97817 27.2937 5.23911 25.65 3.8063C24.0125 2.37349 22.025 1.92505 19.7812 1.82661C17.4687 1.71177 10.5375 1.71177 8.22499 1.82661C5.98749 1.91958 3.99999 2.36802 2.35624 3.80083C0.712488 5.23364 0.206238 6.9727 0.0937378 8.93598C-0.0375122 10.9594 -0.0375122 17.0243 0.0937378 19.0477C0.199988 21.011 0.712488 22.75 2.35624 24.1829C3.99999 25.6157 5.98124 26.0641 8.22499 26.1625C10.5375 26.2774 17.4687 26.2774 19.7812 26.1625C22.025 26.0696 24.0125 25.6211 25.65 24.1829C27.2875 22.75 27.8 21.011 27.9125 19.0477C28.0437 17.0243 28.0437 10.9649 27.9125 8.94145V8.94145ZM24.925 21.2188C24.4375 22.2907 23.4937 23.1165 22.2625 23.5485C20.4187 24.1883 16.0437 24.0407 14.0062 24.0407C11.9687 24.0407 7.58749 24.1829 5.74999 23.5485C4.52499 23.1219 3.58124 22.2961 3.08749 21.2188C2.35624 19.6055 2.52499 15.7774 2.52499 13.9946C2.52499 12.2118 2.36249 8.37817 3.08749 6.77036C3.57499 5.69849 4.51874 4.8727 5.74999 4.44067C7.59374 3.80083 11.9687 3.94849 14.0062 3.94849C16.0437 3.94849 20.425 3.8063 22.2625 4.44067C23.4875 4.86724 24.4312 5.69302 24.925 6.77036C25.6562 8.38364 25.4875 12.2118 25.4875 13.9946C25.4875 15.7774 25.6562 19.611 24.925 21.2188Z" fill="white"/>
</g>
<defs>
<clipPath id="clip0_13_31">
<rect width="28" height="28" fill="white"/>
</clipPath>
</defs>
</svg>
