<svg width="28" height="28" viewBox="0 0 28 28" fill="none" xmlns="http://www.w3.org/2000/svg">
<g clip-path="url(#clip0_13_35)">
<path d="M26.9828 1.34542L21.2953 0.0329156C20.6774 -0.109272 20.043 0.213384 19.7914 0.793072L17.1664 6.91807C16.9367 7.45401 17.0899 8.08292 17.5438 8.44932L20.8578 11.1618C18.8891 15.3564 15.4492 18.8454 11.1672 20.8524L8.45471 17.5384C8.08284 17.0845 7.4594 16.9314 6.92346 17.161L0.798458 19.786C0.213302 20.0431 -0.109355 20.6774 0.0328328 21.2954L1.34533 26.9829C1.48205 27.5735 2.00705 28.0001 2.62502 28.0001C16.6305 28.0001 28 16.6524 28 2.6251C28 2.0126 27.5789 1.48213 26.9828 1.34542Z" fill="white"/>
</g>
<defs>
<clipPath id="clip0_13_35">
<rect width="28" height="28" fill="white"/>
</clipPath>
</defs>
</svg>
