<svg width="28" height="25" viewBox="0 0 28 25" fill="none" xmlns="http://www.w3.org/2000/svg">
<path d="M25 0H3C2.20435 0 1.44129 0.276562 0.87868 0.768845C0.31607 1.26113 0 1.92881 0 2.625V21.875C0 22.5712 0.31607 23.2389 0.87868 23.7312C1.44129 24.2234 2.20435 24.5 3 24.5H11.5781V16.1705H7.64062V12.25H11.5781V9.26188C11.5781 5.86305 13.8906 3.98562 17.4325 3.98562C19.1288 3.98562 20.9025 4.25031 20.9025 4.25031V7.58625H18.9481C17.0225 7.58625 16.4219 8.63188 16.4219 9.7043V12.25H20.7206L20.0331 16.1705H16.4219V24.5H25C25.7956 24.5 26.5587 24.2234 27.1213 23.7312C27.6839 23.2389 28 22.5712 28 21.875V2.625C28 1.92881 27.6839 1.26113 27.1213 0.768845C26.5587 0.276562 25.7956 0 25 0Z" fill="white"/>
</svg>
